<svg xmlns="http://www.w3.org/2000/svg" viewBox="0 0 240 150" font-family="system-ui, -apple-system, sans-serif"><rect width="240" height="150" fill="#0a1220"/><text x="120" y="13" fill="#fbbf24" font-weight="700" font-size="11" text-anchor="middle">Area Phylogeny</text><g transform="translate(10,30)"><text x="5" y="12" fill="#86efac" font-size="7">organism tree</text><line x1="10" y1="30" x2="25" y2="30" stroke="#22c55e"/><line x1="25" y1="30" x2="50" y2="18" stroke="#22c55e"/><line x1="25" y1="30" x2="50" y2="42" stroke="#22c55e"/><line x1="50" y1="42" x2="95" y2="35" stroke="#22c55e"/><line x1="50" y1="42" x2="95" y2="50" stroke="#22c55e"/><text x="100" y="20" fill="#86efac" font-size="6">sp1</text><text x="100" y="38" fill="#86efac" font-size="6">sp2</text><text x="100" y="53" fill="#86efac" font-size="6">sp3</text></g><g transform="translate(10,85)"><text x="5" y="12" fill="#fde68a" font-size="7">area tree</text><line x1="10" y1="30" x2="25" y2="30" stroke="#fbbf24"/><line x1="25" y1="30" x2="50" y2="18" stroke="#fbbf24"/><line x1="25" y1="30" x2="50" y2="42" stroke="#fbbf24"/><line x1="50" y1="42" x2="95" y2="35" stroke="#fbbf24"/><line x1="50" y1="42" x2="95" y2="50" stroke="#fbbf24"/><text x="100" y="20" fill="#fde68a" font-size="6">A</text><text x="100" y="38" fill="#fde68a" font-size="6">B</text><text x="100" y="53" fill="#fde68a" font-size="6">C</text></g><text x="175" y="75" fill="#93c5fd" font-size="7" text-anchor="middle" font-weight="400">mirror = shared history</text></svg>