<svg xmlns="http://www.w3.org/2000/svg" viewBox="0 0 240 150" font-family="system-ui, -apple-system, sans-serif"><rect width="240" height="150" fill="#0a1220"/><text x="120" y="13" fill="#fbbf24" font-weight="700" font-size="11" text-anchor="middle">Stromatolites</text><rect x="0" y="80" width="240" height="70" fill="#1e3a5f" opacity="0.5"/><path d="M 50 115 Q 50 85 70 80 Q 90 85 90 115 Z" fill="none" stroke="#86efac" stroke-width="0.8"/><path d="M 50 115 Q 50 87 70 82 Q 90 87 90 115 Z" fill="none" stroke="#86efac" stroke-width="0.8"/><path d="M 50 115 Q 50 89 70 84 Q 90 89 90 115 Z" fill="none" stroke="#86efac" stroke-width="0.8"/><path d="M 50 115 Q 50 91 70 86 Q 90 91 90 115 Z" fill="none" stroke="#86efac" stroke-width="0.8"/><path d="M 50 115 Q 50 93 70 88 Q 90 93 90 115 Z" fill="none" stroke="#86efac" stroke-width="0.8"/><path d="M 50 115 Q 50 95 70 90 Q 90 95 90 115 Z" fill="none" stroke="#86efac" stroke-width="0.8"/><path d="M 50 115 Q 50 97 70 92 Q 90 97 90 115 Z" fill="none" stroke="#86efac" stroke-width="0.8"/><path d="M 50 115 Q 50 99 70 94 Q 90 99 90 115 Z" fill="none" stroke="#86efac" stroke-width="0.8"/><path d="M 100 115 Q 100 85 120 80 Q 140 85 140 115 Z" fill="none" stroke="#86efac" stroke-width="0.8"/><path d="M 100 115 Q 100 87 120 82 Q 140 87 140 115 Z" fill="none" stroke="#86efac" stroke-width="0.8"/><path d="M 100 115 Q 100 89 120 84 Q 140 89 140 115 Z" fill="none" stroke="#86efac" stroke-width="0.8"/><path d="M 100 115 Q 100 91 120 86 Q 140 91 140 115 Z" fill="none" stroke="#86efac" stroke-width="0.8"/><path d="M 100 115 Q 100 93 120 88 Q 140 93 140 115 Z" fill="none" stroke="#86efac" stroke-width="0.8"/><path d="M 100 115 Q 100 95 120 90 Q 140 95 140 115 Z" fill="none" stroke="#86efac" stroke-width="0.8"/><path d="M 100 115 Q 100 97 120 92 Q 140 97 140 115 Z" fill="none" stroke="#86efac" stroke-width="0.8"/><path d="M 100 115 Q 100 99 120 94 Q 140 99 140 115 Z" fill="none" stroke="#86efac" stroke-width="0.8"/><path d="M 150 115 Q 150 85 170 80 Q 190 85 190 115 Z" fill="none" stroke="#86efac" stroke-width="0.8"/><path d="M 150 115 Q 150 87 170 82 Q 190 87 190 115 Z" fill="none" stroke="#86efac" stroke-width="0.8"/><path d="M 150 115 Q 150 89 170 84 Q 190 89 190 115 Z" fill="none" stroke="#86efac" stroke-width="0.8"/><path d="M 150 115 Q 150 91 170 86 Q 190 91 190 115 Z" fill="none" stroke="#86efac" stroke-width="0.8"/><path d="M 150 115 Q 150 93 170 88 Q 190 93 190 115 Z" fill="none" stroke="#86efac" stroke-width="0.8"/><path d="M 150 115 Q 150 95 170 90 Q 190 95 190 115 Z" fill="none" stroke="#86efac" stroke-width="0.8"/><path d="M 150 115 Q 150 97 170 92 Q 190 97 190 115 Z" fill="none" stroke="#86efac" stroke-width="0.8"/><path d="M 150 115 Q 150 99 170 94 Q 190 99 190 115 Z" fill="none" stroke="#86efac" stroke-width="0.8"/><ellipse cx="70" cy="115" rx="22" ry="4" fill="#22c55e" opacity="0.6"/><ellipse cx="120" cy="115" rx="22" ry="4" fill="#22c55e" opacity="0.6"/><ellipse cx="170" cy="115" rx="22" ry="4" fill="#22c55e" opacity="0.6"/><text x="30" y="90" fill="#93c5fd" font-size="7" text-anchor="start" font-weight="400">shallow water</text><text x="120" y="140" fill="#86efac" font-size="8" text-anchor="middle" font-weight="400">microbial mat laminations</text></svg>