<svg xmlns="http://www.w3.org/2000/svg" viewBox="0 0 240 150" font-family="system-ui, -apple-system, sans-serif"><rect width="240" height="150" fill="#0a1220"/><text x="120" y="13" fill="#fbbf24" font-weight="700" font-size="11" text-anchor="middle">Lagerstätte</text><rect x="20" y="30" width="200" height="25" fill="#8b6f47"/><rect x="20" y="55" width="200" height="30" fill="#374151"/><rect x="20" y="85" width="200" height="30" fill="#8b6f47"/><path d="M 50 72 Q 58 65 65 72 Q 70 75 65 78 Q 58 72 50 72" fill="none" stroke="#86efac" stroke-width="0.8"/><path d="M 110 72 Q 118 65 125 72 Q 130 75 125 78 Q 118 72 110 72" fill="none" stroke="#86efac" stroke-width="0.8"/><path d="M 170 72 Q 178 65 185 72 Q 190 75 185 78 Q 178 72 170 72" fill="none" stroke="#86efac" stroke-width="0.8"/><path d="M 80 70 Q 95 68 100 72 L 92 75 Z" fill="none" stroke="#86efac" stroke-width="0.8"/><path d="M 145 75 Q 155 72 160 78" fill="none" stroke="#86efac" stroke-width="0.8"/><text x="27" y="45" fill="#fde68a" font-size="7" text-anchor="start" font-weight="400">oxic</text><text x="27" y="70" fill="#86efac" font-size="7" text-anchor="start" font-weight="400">ANOXIC → soft-body preserved</text><text x="27" y="100" fill="#fde68a" font-size="7" text-anchor="start" font-weight="400">oxic</text><text x="120" y="145" fill="#94a3b8" font-size="9" text-anchor="middle">exceptional preservation</text></svg>