<svg xmlns="http://www.w3.org/2000/svg" viewBox="0 0 240 150" font-family="system-ui, -apple-system, sans-serif"><rect width="240" height="150" fill="#0a1220"/><text x="120" y="13" fill="#fbbf24" font-weight="700" font-size="11" text-anchor="middle">Transitional Fossil</text><g transform="translate(15,55)"><ellipse cx="25" cy="15" rx="22" ry="8" fill="#60a5fa"/><polygon points="45,15 55,5 55,25" fill="#60a5fa"/><circle cx="10" cy="13" r="1.5" fill="#0a1220"/><text x="25" y="40" fill="#93c5fd" font-size="7" text-anchor="middle">fish</text></g><line x1="65" y1="75" x2="85" y2="75" stroke="#fbbf24" marker-end="url(#tf1)"/><defs><marker id="tf1" markerWidth="6" markerHeight="6" refX="5" refY="3" orient="auto"><polygon points="0,0 6,3 0,6" fill="#fbbf24"/></marker></defs><g transform="translate(90,50)"><ellipse cx="30" cy="20" rx="28" ry="9" fill="#fbbf24"/><polygon points="55,20 62,12 62,28" fill="#fbbf24"/><rect x="18" y="28" width="4" height="8" fill="#fbbf24"/><rect x="38" y="28" width="4" height="8" fill="#fbbf24"/><text x="30" y="50" fill="#fde68a" font-size="7" text-anchor="middle" font-weight="700">Tiktaalik</text></g><line x1="160" y1="75" x2="180" y2="75" stroke="#fbbf24" marker-end="url(#tf1)"/><g transform="translate(182,55)"><ellipse cx="25" cy="15" rx="20" ry="7" fill="#22c55e"/><line x1="12" y1="20" x2="10" y2="30" stroke="#22c55e" stroke-width="3"/><line x1="22" y1="20" x2="22" y2="32" stroke="#22c55e" stroke-width="3"/><line x1="32" y1="20" x2="34" y2="32" stroke="#22c55e" stroke-width="3"/><line x1="42" y1="20" x2="45" y2="30" stroke="#22c55e" stroke-width="3"/><text x="25" y="45" fill="#86efac" font-size="7" text-anchor="middle">tetrapod</text></g><text x="120" y="145" fill="#94a3b8" font-size="9" text-anchor="middle">intermediate form</text></svg>