<svg xmlns="http://www.w3.org/2000/svg" viewBox="0 0 240 150" font-family="system-ui, -apple-system, sans-serif"><rect width="240" height="150" fill="#0a1220"/><text x="120" y="13" fill="#fbbf24" font-weight="700" font-size="11" text-anchor="middle">Three Domains</text><circle cx="120" cy="130" r="3" fill="#fbbf24"/><text x="120" y="140" fill="#fbbf24" font-size="7" text-anchor="middle" font-weight="400">LUCA</text><line x1="120" y1="130" x2="50" y2="60" stroke="#60a5fa" stroke-width="2"/><line x1="120" y1="130" x2="120" y2="40" stroke="#a78bfa" stroke-width="2"/><line x1="120" y1="130" x2="190" y2="60" stroke="#22c55e" stroke-width="2"/><line x1="50" y1="60" x2="30" y2="35" stroke="#60a5fa" stroke-width="1"/><line x1="50" y1="60" x2="42" y2="35" stroke="#60a5fa" stroke-width="1"/><line x1="50" y1="60" x2="54" y2="35" stroke="#60a5fa" stroke-width="1"/><line x1="120" y1="40" x2="105" y2="20" stroke="#a78bfa" stroke-width="1"/><line x1="120" y1="40" x2="117" y2="20" stroke="#a78bfa" stroke-width="1"/><line x1="120" y1="40" x2="129" y2="20" stroke="#a78bfa" stroke-width="1"/><line x1="190" y1="60" x2="175" y2="35" stroke="#22c55e" stroke-width="1"/><line x1="190" y1="60" x2="187" y2="35" stroke="#22c55e" stroke-width="1"/><line x1="190" y1="60" x2="199" y2="35" stroke="#22c55e" stroke-width="1"/><text x="45" y="75" fill="#60a5fa" font-size="8" text-anchor="middle" font-weight="700">Bacteria</text><text x="120" y="55" fill="#a78bfa" font-size="8" text-anchor="middle" font-weight="700">Archaea</text><text x="195" y="75" fill="#22c55e" font-size="8" text-anchor="middle" font-weight="700">Eukarya</text></svg>