<svg xmlns="http://www.w3.org/2000/svg" viewBox="0 0 240 150" font-family="system-ui, -apple-system, sans-serif"><rect width="240" height="150" fill="#0a1220"/><text x="120" y="13" fill="#fbbf24" font-weight="700" font-size="11" text-anchor="middle">Homology: Forelimbs</text><g transform="translate(35,30)"><rect x="0" y="0" width="10" height="20" fill="#60a5fa" rx="2"/><rect x="-2" y="22" width="6" height="18" fill="#93c5fd" rx="1"/><rect x="6" y="22" width="6" height="18" fill="#93c5fd" rx="1"/><rect x="-4" y="42" width="18" height="14" fill="#a78bfa" rx="1"/><text x="5" y="75" fill="#e5e7eb" font-size="7" text-anchor="middle">human</text></g><g transform="translate(90,30)"><rect x="0" y="0" width="10" height="20" fill="#60a5fa" rx="2"/><rect x="-2" y="22" width="6" height="18" fill="#93c5fd" rx="1"/><rect x="6" y="22" width="6" height="18" fill="#93c5fd" rx="1"/><rect x="-4" y="42" width="18" height="14" fill="#a78bfa" rx="1"/><text x="5" y="75" fill="#e5e7eb" font-size="7" text-anchor="middle">whale</text></g><g transform="translate(145,30)"><rect x="0" y="0" width="10" height="20" fill="#60a5fa" rx="2"/><rect x="-2" y="22" width="6" height="18" fill="#93c5fd" rx="1"/><rect x="6" y="22" width="6" height="18" fill="#93c5fd" rx="1"/><rect x="-4" y="42" width="18" height="14" fill="#a78bfa" rx="1"/><text x="5" y="75" fill="#e5e7eb" font-size="7" text-anchor="middle">bat</text></g><g transform="translate(200,30)"><rect x="0" y="0" width="10" height="20" fill="#60a5fa" rx="2"/><rect x="-2" y="22" width="6" height="18" fill="#93c5fd" rx="1"/><rect x="6" y="22" width="6" height="18" fill="#93c5fd" rx="1"/><rect x="-4" y="42" width="18" height="14" fill="#a78bfa" rx="1"/><text x="5" y="75" fill="#e5e7eb" font-size="7" text-anchor="middle">bird</text></g><text x="120" y="145" fill="#94a3b8" font-size="9" text-anchor="middle">same bones, different uses</text></svg>